<svg xmlns="http://www.w3.org/2000/svg" xmlns:xlink="http://www.w3.org/1999/xlink" width="500" zoomAndPan="magnify" viewBox="0 0 375 374.999991" height="500" preserveAspectRatio="xMidYMid meet" version="1.0"><defs><g/><clipPath id="id1"><path d="M 16 109.347656 L 48 109.347656 L 48 141 L 16 141 Z M 16 109.347656 " clip-rule="nonzero"/></clipPath><clipPath id="id2"><path d="M 70 112 L 307 112 L 307 231.597656 L 70 231.597656 Z M 70 112 " clip-rule="nonzero"/></clipPath></defs><g fill="#717171" fill-opacity="0.4"><g transform="translate(69.513091, 241.897249)"><g><path d="M 127.507812 -28.375 L 127.507812 -99.132812 C 127.507812 -114.757812 114.578125 -127.867188 98.59375 -127.867188 C 85.304688 -127.867188 73.632812 -117.808594 70.9375 -105.597656 L 81.53125 -90.152344 C 82.070312 -89.074219 80.457031 -87.996094 79.917969 -89.074219 L 50.644531 -117.808594 C 45.257812 -123.195312 37.355469 -127.867188 28.734375 -127.867188 C 12.929688 -127.867188 0 -114.757812 0 -99.132812 L 0 -28.375 C 0 -12.210938 12.929688 0.359375 28.734375 0.359375 C 42.203125 0.359375 53.875 -8.980469 56.570312 -21.371094 L 46.332031 -37.175781 C 45.792969 -38.433594 47.410156 -40.046875 47.949219 -38.96875 C 58.007812 -28.375 68.242188 -18.675781 78.839844 -8.441406 C 95 7.902344 127.507812 -0.71875 127.507812 -28.375 Z M 127.507812 -28.375 "/></g></g></g><g fill="#717171" fill-opacity="0.4"><g transform="translate(202.40094, 241.897249)"><g><path d="M 114.039062 -99.3125 C 114.039062 -115.117188 100.929688 -127.6875 84.945312 -127.6875 L 45.972656 -127.6875 C -5.925781 -128.226562 -14.007812 -69.679688 21.191406 -51.183594 C 25.859375 -48.847656 31.070312 -46.871094 36.097656 -46.511719 C 37.535156 -45.972656 37.175781 -44.179688 35.738281 -44.179688 C 27.296875 -44.179688 17.957031 -46.511719 10.953125 -51.183594 C 3.054688 -45.4375 -0.359375 -38.253906 -0.359375 -28.554688 C -0.359375 -15.804688 12.929688 0.179688 28.195312 0.179688 L 67.523438 0.179688 C 124.453125 0.179688 128.585938 -70.21875 80.636719 -81.171875 C 79.199219 -81.53125 79.738281 -83.507812 81.171875 -83.507812 C 88.355469 -82.96875 95.359375 -81.171875 101.289062 -77.761719 C 109.726562 -82.070312 114.039062 -89.972656 114.039062 -99.3125 Z M 114.039062 -99.3125 "/></g></g></g><g fill="#ff385c" fill-opacity="1"><g transform="translate(61.576172, 233.960332)"><g><path d="M 127.507812 -28.375 L 127.507812 -99.132812 C 127.507812 -114.757812 114.578125 -127.867188 98.59375 -127.867188 C 85.304688 -127.867188 73.632812 -117.808594 70.9375 -105.597656 L 81.53125 -90.152344 C 82.070312 -89.074219 80.457031 -87.996094 79.917969 -89.074219 L 50.644531 -117.808594 C 45.257812 -123.195312 37.355469 -127.867188 28.734375 -127.867188 C 12.929688 -127.867188 0 -114.757812 0 -99.132812 L 0 -28.375 C 0 -12.210938 12.929688 0.359375 28.734375 0.359375 C 42.203125 0.359375 53.875 -8.980469 56.570312 -21.371094 L 46.332031 -37.175781 C 45.792969 -38.433594 47.410156 -40.046875 47.949219 -38.96875 C 58.007812 -28.375 68.242188 -18.675781 78.839844 -8.441406 C 95 7.902344 127.507812 -0.71875 127.507812 -28.375 Z M 127.507812 -28.375 "/></g></g></g><g fill="#ff385c" fill-opacity="1"><g transform="translate(194.46402, 233.960332)"><g><path d="M 114.039062 -99.3125 C 114.039062 -115.117188 100.929688 -127.6875 84.945312 -127.6875 L 45.972656 -127.6875 C -5.925781 -128.226562 -14.007812 -69.679688 21.191406 -51.183594 C 25.859375 -48.847656 31.070312 -46.871094 36.097656 -46.511719 C 37.535156 -45.972656 37.175781 -44.179688 35.738281 -44.179688 C 27.296875 -44.179688 17.957031 -46.511719 10.953125 -51.183594 C 3.054688 -45.4375 -0.359375 -38.253906 -0.359375 -28.554688 C -0.359375 -15.804688 12.929688 0.179688 28.195312 0.179688 L 67.523438 0.179688 C 124.453125 0.179688 128.585938 -70.21875 80.636719 -81.171875 C 79.199219 -81.53125 79.738281 -83.507812 81.171875 -83.507812 C 88.355469 -82.96875 95.359375 -81.171875 101.289062 -77.761719 C 109.726562 -82.070312 114.039062 -89.972656 114.039062 -99.3125 Z M 114.039062 -99.3125 "/></g></g></g><g clip-path="url(#id1)"><path fill="#717171" d="M 47.683594 125.613281 C 47.398438 134.308594 40.121094 141.132812 31.417969 140.855469 C 22.71875 140.574219 15.890625 133.296875 16.167969 124.597656 C 16.449219 115.90625 23.734375 109.078125 32.433594 109.359375 C 41.132812 109.644531 47.960938 116.917969 47.683594 125.613281 " fill-opacity="1" fill-rule="nonzero"/></g><path fill="#717171" d="M 358.792969 212.347656 C 358.511719 221.039062 351.230469 227.863281 342.535156 227.585938 C 333.824219 227.308594 327.007812 220.027344 327.289062 211.335938 C 327.550781 202.636719 334.835938 195.808594 343.542969 196.085938 C 352.238281 196.375 359.070312 203.648438 358.792969 212.347656 " fill-opacity="1" fill-rule="nonzero"/><path fill="#b0b0b0" d="M 58.6875 124.039062 C 56.738281 124.039062 54.933594 122.808594 54.277344 120.863281 C 53.457031 118.4375 54.753906 115.808594 57.183594 114.976562 C 57.183594 114.976562 57.359375 114.917969 57.691406 114.8125 C 60.160156 114.074219 62.757812 115.46875 63.496094 117.933594 C 64.234375 120.394531 62.839844 122.992188 60.378906 123.730469 L 60.148438 123.804688 C 59.664062 123.960938 59.171875 124.039062 58.6875 124.039062 " fill-opacity="1" fill-rule="nonzero"/><g clip-path="url(#id2)"><path fill="#b0b0b0" d="M 75.460938 121.964844 L 74.785156 121.964844 C 72.207031 121.964844 70.066406 119.882812 70.066406 117.3125 C 70.066406 114.742188 72.09375 112.65625 74.667969 112.65625 L 75.503906 112.65625 C 78.078125 112.679688 80.144531 114.789062 80.121094 117.359375 C 80.089844 119.910156 78.007812 121.964844 75.460938 121.964844 Z M 91.910156 123.917969 C 91.570312 123.917969 91.226562 123.882812 90.878906 123.804688 L 90.152344 123.640625 C 87.632812 123.101562 86.039062 120.621094 86.582031 118.105469 C 87.125 115.59375 89.601562 113.996094 92.117188 114.539062 L 92.933594 114.722656 C 95.445312 115.285156 97.015625 117.785156 96.449219 120.289062 C 95.964844 122.453125 94.039062 123.917969 91.910156 123.917969 Z M 107.636719 129.105469 C 107.019531 129.105469 106.386719 128.984375 105.78125 128.71875 L 105.085938 128.414062 C 102.710938 127.410156 101.621094 124.667969 102.628906 122.304688 C 103.640625 119.941406 106.378906 118.84375 108.746094 119.855469 L 109.492188 120.183594 C 111.851562 121.207031 112.9375 123.949219 111.90625 126.308594 C 111.148438 128.058594 109.433594 129.105469 107.636719 129.105469 Z M 122.207031 136.988281 C 121.324219 136.988281 120.441406 136.738281 119.652344 136.214844 L 119.046875 135.828125 C 116.875 134.449219 116.238281 131.566406 117.621094 129.398438 C 118.996094 127.234375 121.886719 126.589844 124.050781 127.972656 L 124.773438 128.441406 C 126.917969 129.851562 127.519531 132.738281 126.105469 134.890625 C 125.207031 136.246094 123.722656 136.988281 122.207031 136.988281 Z M 135.433594 146.96875 C 134.355469 146.96875 133.269531 146.59375 132.382812 145.832031 L 131.800781 145.328125 C 129.847656 143.65625 129.628906 140.714844 131.304688 138.761719 C 132.984375 136.816406 135.925781 136.59375 137.871094 138.265625 L 138.484375 138.792969 C 140.433594 140.476562 140.636719 143.417969 138.957031 145.363281 C 138.035156 146.425781 136.738281 146.96875 135.433594 146.96875 Z M 147.304688 158.535156 C 146.046875 158.535156 144.792969 158.027344 143.871094 157.027344 L 143.347656 156.460938 C 141.601562 154.574219 141.71875 151.625 143.605469 149.878906 C 145.492188 148.132812 148.4375 148.25 150.191406 150.140625 L 150.738281 150.734375 C 152.476562 152.625 152.351562 155.570312 150.453125 157.3125 C 149.558594 158.132812 148.433594 158.535156 147.304688 158.535156 Z M 157.910156 171.277344 C 156.503906 171.277344 155.117188 170.640625 154.199219 169.4375 L 153.722656 168.808594 C 152.167969 166.761719 152.5625 163.847656 154.613281 162.289062 C 156.65625 160.730469 159.578125 161.125 161.136719 163.175781 L 161.617188 163.804688 C 163.175781 165.851562 162.777344 168.773438 160.726562 170.328125 C 159.882812 170.96875 158.894531 171.277344 157.910156 171.277344 Z M 167.488281 184.808594 C 166.042969 184.808594 164.621094 184.132812 163.710938 182.875 L 163.230469 182.207031 C 161.738281 180.117188 162.230469 177.207031 164.328125 175.714844 C 166.421875 174.230469 169.332031 174.714844 170.824219 176.8125 L 171.269531 177.429688 C 172.765625 179.515625 172.300781 182.425781 170.210938 183.929688 C 169.386719 184.523438 168.433594 184.808594 167.488281 184.808594 Z M 178.105469 197.523438 C 176.878906 197.523438 175.667969 197.054688 174.753906 196.105469 L 174.179688 195.511719 C 172.410156 193.652344 172.488281 190.707031 174.351562 188.929688 C 176.199219 187.160156 179.148438 187.226562 180.933594 189.085938 L 181.445312 189.632812 C 183.230469 191.480469 183.183594 194.425781 181.335938 196.214844 C 180.4375 197.089844 179.273438 197.523438 178.105469 197.523438 Z M 190.464844 208.550781 C 189.472656 208.550781 188.496094 208.242188 187.65625 207.597656 L 187.003906 207.101562 C 184.953125 205.539062 184.582031 202.617188 186.148438 200.582031 C 187.703125 198.539062 190.636719 198.15625 192.671875 199.71875 L 193.292969 200.1875 C 195.328125 201.742188 195.730469 204.667969 194.175781 206.714844 C 193.261719 207.914062 191.863281 208.550781 190.464844 208.550781 Z M 204.394531 217.527344 C 203.648438 217.527344 202.886719 217.347656 202.171875 216.964844 L 201.445312 216.566406 C 199.191406 215.320312 198.386719 212.492188 199.628906 210.242188 C 200.871094 207.992188 203.695312 207.175781 205.945312 208.417969 L 206.597656 208.769531 C 208.867188 209.992188 209.71875 212.820312 208.492188 215.082031 C 207.65625 216.636719 206.039062 217.527344 204.394531 217.527344 Z M 219.53125 224.257812 C 219.019531 224.257812 218.507812 224.171875 217.980469 223.992188 L 217.1875 223.699219 C 214.765625 222.8125 213.539062 220.136719 214.425781 217.722656 C 215.324219 215.308594 217.996094 214.074219 220.402344 214.964844 L 221.085938 215.214844 C 223.523438 216.066406 224.796875 218.726562 223.925781 221.152344 C 223.257812 223.0625 221.457031 224.257812 219.53125 224.257812 Z M 300.628906 227.785156 C 298.46875 227.785156 296.53125 226.277344 296.078125 224.082031 C 295.550781 221.566406 297.167969 219.097656 299.683594 218.570312 L 300.410156 218.414062 C 302.925781 217.867188 305.410156 219.449219 305.953125 221.960938 C 306.511719 224.46875 304.929688 226.953125 302.414062 227.507812 L 301.589844 227.683594 C 301.265625 227.75 300.9375 227.785156 300.628906 227.785156 Z M 235.507812 228.738281 C 235.199219 228.738281 234.886719 228.707031 234.5625 228.640625 L 233.738281 228.464844 C 231.222656 227.917969 229.625 225.4375 230.183594 222.921875 C 230.726562 220.414062 233.210938 218.8125 235.726562 219.363281 L 236.441406 219.515625 C 238.957031 220.039062 240.585938 222.5 240.058594 225.015625 C 239.609375 227.222656 237.667969 228.738281 235.507812 228.738281 Z M 284.25 230.457031 C 281.917969 230.457031 279.902344 228.710938 279.636719 226.34375 C 279.339844 223.785156 281.171875 221.476562 283.71875 221.175781 L 284.480469 221.09375 C 287.042969 220.765625 289.355469 222.59375 289.667969 225.148438 C 289.992188 227.699219 288.160156 230.023438 285.613281 230.332031 L 284.808594 230.425781 C 284.605469 230.453125 284.433594 230.457031 284.25 230.457031 Z M 251.921875 231.105469 C 251.78125 231.105469 251.65625 231.101562 251.519531 231.089844 L 250.726562 231.023438 C 248.164062 230.796875 246.269531 228.542969 246.488281 225.976562 C 246.703125 223.421875 248.957031 221.546875 251.535156 221.742188 L 252.324219 221.808594 C 254.886719 222.03125 256.78125 224.285156 256.5625 226.851562 C 256.347656 229.277344 254.3125 231.105469 251.921875 231.105469 Z M 267.710938 231.597656 C 265.179688 231.597656 263.101562 229.5625 263.054688 227.019531 C 263.007812 224.453125 265.058594 222.332031 267.632812 222.285156 L 268.394531 222.269531 C 270.972656 222.164062 273.101562 224.246094 273.160156 226.816406 C 273.207031 229.382812 271.175781 231.519531 268.613281 231.582031 L 267.789062 231.597656 L 267.710938 231.597656 " fill-opacity="1" fill-rule="nonzero"/></g><path fill="#b0b0b0" d="M 316.777344 223.488281 C 314.835938 223.488281 313.035156 222.273438 312.367188 220.347656 C 311.527344 217.917969 312.832031 215.269531 315.253906 214.429688 L 315.550781 214.328125 C 317.972656 213.457031 320.628906 214.703125 321.511719 217.121094 C 322.382812 219.535156 321.140625 222.203125 318.71875 223.082031 L 318.296875 223.234375 C 317.785156 223.410156 317.273438 223.488281 316.777344 223.488281 " fill-opacity="1" fill-rule="nonzero"/></svg>