<svg id="Layer_1" data-name="Layer 1" xmlns="http://www.w3.org/2000/svg" >
  <defs>
    <style>
      .cls-1 {
        fill: #ff365b;
      }
    </style>
  </defs>
  <g>
    <path class="cls-1" d="M4.34,99.47l10.17-15a29,29,0,0,0,9.82,5.68,34.86,34.86,0,0,0,11.72,2,12.9,12.9,0,0,0,7.14-1.85,5.52,5.52,0,0,0,2.88-4.77,5.27,5.27,0,0,0-1.62-3.79A12.76,12.76,0,0,0,40.15,79c-1.79-.74-3.82-1.54-6.11-2.41s-4.62-1.68-7-2.44a37.32,37.32,0,0,1-7-3.08A37.21,37.21,0,0,1,14,66.85a16.75,16.75,0,0,1-4.3-5.95,19.73,19.73,0,0,1-1.61-8.13q0-10.8,9-17.59A34,34,0,0,1,38.1,28.4,49.65,49.65,0,0,1,53,30.76a36.73,36.73,0,0,1,11.63,5.6L54.74,51.51a25.16,25.16,0,0,0-15-5.29,15.85,15.85,0,0,0-7.62,1.66,5.07,5.07,0,0,0-3,4.58,4.42,4.42,0,0,0,2.09,3.59,21,21,0,0,0,5.44,2.72c2.24.79,4.71,1.61,7.42,2.48a63.65,63.65,0,0,1,8.08,3.24A40.84,40.84,0,0,1,59.52,69,19.26,19.26,0,0,1,65,75.92a22.24,22.24,0,0,1,2.09,9.82A20.29,20.29,0,0,1,62.67,98.6a27.26,27.26,0,0,1-11.4,8.48A40.15,40.15,0,0,1,35.89,110a52.36,52.36,0,0,1-16.45-2.72A53.5,53.5,0,0,1,4.34,99.47Z" transform="translate(-4.34 -8.2)"/>
    <path class="cls-1" d="M86.45,147.19V30.05h20.2v6.31a35.33,35.33,0,0,1,22.87-8,36.59,36.59,0,0,1,19.33,5.36,38.74,38.74,0,0,1,14,14.75A42.38,42.38,0,0,1,168,69.26q0,16.17-9.86,27.53A37.71,37.71,0,0,1,145,106.41,40,40,0,0,1,128.42,110a33.73,33.73,0,0,1-21-7.1v44.33Zm21-89.69V80.93a21.81,21.81,0,0,0,8,7.1,22.92,22.92,0,0,0,10.81,2.6,19.84,19.84,0,0,0,14.83-6.07A21.06,21.06,0,0,0,147,69.26a22.05,22.05,0,0,0-5.64-15.11,18.61,18.61,0,0,0-14.56-6.35,24,24,0,0,0-19.4,9.7Z" transform="translate(-4.34 -8.2)"/>
    <path class="cls-1" d="M186.28,89.77a40.14,40.14,0,0,1-5.4-20.51,40.34,40.34,0,0,1,5.4-20.55,39.82,39.82,0,0,1,15-14.83,44,44,0,0,1,42.51,0,39.82,39.82,0,0,1,15,14.83,40.34,40.34,0,0,1,5.4,20.55,40.14,40.14,0,0,1-5.4,20.51,39.62,39.62,0,0,1-15,14.75,44.24,44.24,0,0,1-42.51,0A39.62,39.62,0,0,1,186.28,89.77ZM207.66,54a21.48,21.48,0,0,0-5.8,15.27,21.31,21.31,0,0,0,5.8,15.22,21,21,0,0,0,29.73,0,21.31,21.31,0,0,0,5.8-15.22A21.48,21.48,0,0,0,237.39,54a20.94,20.94,0,0,0-29.73,0Z" transform="translate(-4.34 -8.2)"/>
    <path class="cls-1" d="M336.11,90.63l3.24,17.75q-4.58,1.58-13.1,1.58-18.62,0-27.13-11.28-5.83-7.82-5.84-23.43V47.8H271.51V30.05h21.77V8.2h21.06V30.05h25.8V47.8h-25.8V77.7q0,6.85,2.53,9.86,3.39,3.87,10.73,3.86A39.43,39.43,0,0,0,336.11,90.63Z" transform="translate(-4.34 -8.2)"/>
    <path d="M412.79,80.3,429,92.37Q415.79,110,393.38,110q-18,0-30-11.79a39,39,0,0,1-12-28.91,40,40,0,0,1,20.66-35.42,43.09,43.09,0,0,1,21.46-5.44,41.93,41.93,0,0,1,18.66,4.26,40.25,40.25,0,0,1,14.31,11.43l-14.83,13.1a23.9,23.9,0,0,0-7.92-6.86,21.18,21.18,0,0,0-10.22-2.53A20.27,20.27,0,0,0,378.43,54a21,21,0,0,0-6,15.27,20.79,20.79,0,0,0,6,15.34q6,6,15.58,6a20.81,20.81,0,0,0,11-3A23.9,23.9,0,0,0,412.79,80.3Z" transform="translate(-4.34 -8.2)"/>
    <path d="M444,89.77a40.05,40.05,0,0,1-5.41-20.51A40.25,40.25,0,0,1,444,48.71a39.8,39.8,0,0,1,15-14.83,44,44,0,0,1,42.52,0,39.82,39.82,0,0,1,15,14.83,40.34,40.34,0,0,1,5.4,20.55,40.14,40.14,0,0,1-5.4,20.51,39.62,39.62,0,0,1-15,14.75,44.26,44.26,0,0,1-42.52,0A39.59,39.59,0,0,1,444,89.77ZM465.36,54a21.53,21.53,0,0,0-5.8,15.27,21.36,21.36,0,0,0,5.8,15.22,21.05,21.05,0,0,0,29.74,0,21.31,21.31,0,0,0,5.8-15.22A21.48,21.48,0,0,0,495.1,54a21,21,0,0,0-29.74,0Z" transform="translate(-4.34 -8.2)"/>
    <path d="M548.54,30.05,570,77.86l21.53-47.81h21.78l-36,78.33h-14.6l-36-78.33Z" transform="translate(-4.34 -8.2)"/>
    <path d="M679.33,84l11.91,11.91A37.08,37.08,0,0,1,677,106.29a45.08,45.08,0,0,1-17.9,3.67q-17.83,0-29.43-11.28T618.12,69.26a44.58,44.58,0,0,1,2.72-15.54,42.06,42.06,0,0,1,7.57-13.06,34.92,34.92,0,0,1,12.07-8.95,37.25,37.25,0,0,1,15.74-3.31,34.58,34.58,0,0,1,19.09,5.48,37.37,37.37,0,0,1,13.21,14.63,43.09,43.09,0,0,1,4.69,20,34.1,34.1,0,0,1-.47,6H638.47a19.42,19.42,0,0,0,6.78,13.37A21.24,21.24,0,0,0,659.61,93a24,24,0,0,0,11.24-2.68A30.22,30.22,0,0,0,679.33,84ZM639.42,59.08h32.34a14.63,14.63,0,0,0-4.89-9.58,15,15,0,0,0-10.65-4.14A16.9,16.9,0,0,0,645,49.46,14.84,14.84,0,0,0,639.42,59.08Z" transform="translate(-4.34 -8.2)"/>
    <path d="M761,29,758.6,48.59A26.29,26.29,0,0,0,751,47.8a20,20,0,0,0-11.51,3.55,24.06,24.06,0,0,0-7.58,7.73v49.3H711V30.05h20.19v7.89a24.19,24.19,0,0,1,9.59-7,33.2,33.2,0,0,1,13.13-2.56A55.64,55.64,0,0,1,761,29Z" transform="translate(-4.34 -8.2)"/>
  </g>
</svg>
